#!OML:ASF X:\für Bonn\!DataBase\2005_08_12_Daniel\c3d\Daniel.ASF
:FULLY-SPECIFIED
:DEGREES
2490
root -20.717 17.4211 -33.1883 -723.296 -27.7938 -368.136
lowerback 15.0891 -5.74775 -2.36307
upperback 3.66406 -7.98585 0.258178
thorax -4.14215 -3.95116 3.02891
lowerneck -1.73524 0.743776 -6.50078
upperneck 12.4364 1.56504 -2.69119
head 4.39284 0.289722 0.301129
rclavicle -8.48811e-014 2.22639e-014
rhumerus -56.924 10.3658 -89.9983
rradius 61.8307
rwrist -2.80407
rhand -31.5953 30.4452
rfingers 7.12502
rthumb -4.85794 0.520881
lclavicle -8.48811e-014 2.22639e-014
lhumerus -40.7589 -30.2731 100.323
lradius 94.3428
lwrist 15.3894
lhand -0.976796 -10.3812
lfingers 7.12502
lthumb 24.6544 18.0507
rfemur -10.5964 29.0915 11.4421
rtibia 28.9558
rfoot -7.7754 7.062
rtoes -23.3659
lfemur -5.31334 -20.14 -16.7275
ltibia 48.4156
lfoot -20.8973 -35.5502
ltoes 13.3299
2491
root -20.8675 17.3877 -33.2274 -723.273 -25.8226 -368.015
lowerback 14.9787 -5.89676 -2.45561
upperback 3.68062 -8.18503 0.376968
thorax -4.02193 -4.05192 3.21999
lowerneck -1.63604 0.691379 -6.2463
upperneck 12.4708 1.49354 -2.84726
head 4.38873 0.26016 0.200308
rclavicle -1.19072e-013 2.70347e-014
rhumerus -56.9207 10.3134 -89.728
rradius 61.6891
rwrist -2.82668
rhand -31.4048 30.5985
rfingers 7.12502
rthumb -4.67401 0.670085
lclavicle -1.19072e-013 2.70347e-014
lhumerus -39.8651 -29.907 100.106
lradius 92.657
lwrist 14.9773
lhand -1.16736 -10.0913
lfingers 7.12502
lthumb 24.4718 18.3654
rfemur -10.0233 28.4626 11.6163
rtibia 28.9387
rfoot -9.04422 7.27651
rtoes -22.9933
lfemur -6.03364 -20.3781 -15.9962
ltibia 49.0721
lfoot -21.7006 -35.5478
ltoes 12.9315
2492
root -21.015 17.3583 -33.2656 -723.127 -23.9042 -367.935
lowerback 14.7902 -6.03201 -2.46929
upperback 3.66035 -8.35268 0.49918
thorax -3.91013 -4.13698 3.35898
lowerneck -1.61584 0.660715 -5.9525
upperneck 12.5935 1.46207 -3.02475
head 4.43218 0.247186 0.0874058
rclavicle 1.25036e-013 -2.3059e-014
rhumerus -56.7718 10.1727 -89.4775
rradius 61.3594
rwrist -2.81926
rhand -31.3169 30.7297
rfingers 7.12502
rthumb -4.58913 0.799417
lclavicle 1.25036e-013 -2.3059e-014
lhumerus -38.8726 -29.444 99.8783
lradius 90.8092
lwrist 14.7812
lhand -1.57703 -9.54652
lfingers 7.12502
lthumb 24.079 18.9627
rfemur -9.58276 27.4992 11.8686
rtibia 29.0221
rfoot -10.3497 7.46897
rtoes -22.9542
lfemur -6.89124 -20.5594 -15.1999
ltibia 49.7211
lfoot -22.5327 -35.4104
ltoes 12.2575
2493
root -21.1582 17.3331 -33.3015 -722.906 -22.0532 -367.904
lowerback 14.5675 -6.16639 -2.41504
upperback 3.60741 -8.50834 0.640326
thorax -3.82138 -4.21556 3.47616
lowerneck -1.57452 0.673472 -5.71694
upperneck 12.6997 1.48665 -3.17208
head 4.46435 0.261312 -0.00298195
rclavicle 1.03567e-013 -2.94201e-014
rhumerus -56.4961 9.98117 -89.1937
rradius 60.8061
rwrist -2.74679
rhand -31.2684 30.9366
rfingers 7.12502
rthumb -4.5423 1.0053
lclavicle 1.03567e-013 -2.94201e-014
lhumerus -37.8182 -28.7342 99.7125
lradius 88.7233
lwrist 14.6167
lhand -2.17336 -8.94372
lfingers 7.12502
lthumb 23.5071 19.64
rfemur -9.22693 26.2276 12.2125
rtibia 29.1611
rfoot -11.6403 7.62152
rtoes -23.1152
lfemur -7.82577 -20.6817 -14.3528
ltibia 50.3661
lfoot -23.3634 -35.1644
ltoes 11.4141
2494
root -21.2962 17.3112 -33.3365 -722.622 -20.3161 -367.924
lowerback 14.3091 -6.27008 -2.22659
upperback 3.54713 -8.60548 0.75268
thorax -3.74917 -4.2652 3.47754
lowerneck -1.56358 0.707959 -5.48947
upperneck 12.7964 1.53851 -3.27146
head 4.49854 0.291209 -0.0744468
rclavicle -7.7526e-015 -7.15625e-015
rhumerus -56.1401 9.52953 -88.8942
rradius 60.1251
rwrist -2.43536
rhand -31.3014 31.1
rfingers 7.12502
rthumb -4.57415 1.16937
lclavicle -7.7526e-015 -7.15625e-015
lhumerus -36.702 -27.9357 99.5063
lradius 86.4997
lwrist 14.5235
lhand -2.92342 -8.36928
lfingers 7.12502
lthumb 22.7875 20.3048
rfemur -8.95734 24.7852 12.6186
rtibia 29.316
rfoot -12.8798 7.71383
rtoes -23.1641
lfemur -8.82016 -20.74 -13.4768
ltibia 51.0201
lfoot -24.1738 -34.7333
ltoes 10.5101
2495
root -21.428 17.2863 -33.3711 -722.318 -18.6912 -367.988
lowerback 14.0569 -6.34912 -1.92855
upperback 3.46578 -8.65661 0.852642
thorax -3.72391 -4.29092 3.40241
lowerneck -1.61177 0.762651 -5.2914
upperneck 12.9694 1.62416 -3.34656
head 4.57244 0.334219 -0.131172
rclavicle 5.1684e-015 -3.97569e-015
rhumerus -55.7597 8.98773 -88.5911
rradius 59.4099
rwrist -2.13342
rhand -31.3253 31.2288
rfingers 7.12502
rthumb -4.59727 1.29867
lclavicle 5.1684e-015 -3.97569e-015
lhumerus -35.5077 -26.9269 99.3311
lradius 83.9889
lwrist 14.3862
lhand -3.66919 -7.89436
lfingers 7.12502
lthumb 22.0716 20.866
rfemur -8.73837 23.1747 13.0765
rtibia 29.4629
rfoot -14.0618 7.80863
rtoes -23.4783
lfemur -9.79675 -20.7852 -12.6236
ltibia 51.6718
lfoot -25.0128 -34.0406
ltoes 9.26
2496
root -21.5542 17.2645 -33.4077 -722.039 -17.164 -368.067
lowerback 13.8687 -6.39959 -1.59588
upperback 3.39425 -8.66731 0.955724
thorax -3.73002 -4.29621 3.31313
lowerneck -1.78395 0.841834 -5.18203
upperneck 13.2125 1.7536 -3.36255
head 4.69648 0.393834 -0.149985
rclavicle 8.79622e-014 -4.53229e-014
rhumerus -55.2517 8.28296 -88.2205
rradius 58.6096
rwrist -1.61567
rhand -31.4223 31.287
rfingers 7.12502
rthumb -4.69091 1.35893
lclavicle 8.79622e-014 -4.53229e-014
lhumerus -34.0761 -25.5878 99.1659
lradius 81.0609
lwrist 14.0208
lhand -4.27279 -7.76891
lfingers 7.12502
lthumb 21.492 21.0588
rfemur -8.49417 21.8266 13.6157
rtibia 29.5766
rfoot -15.3684 7.58385
rtoes -24.2072
lfemur -10.7338 -20.8054 -11.814
ltibia 52.3113
lfoot -25.8773 -33.1099
ltoes 7.72467
2497
root -21.6744 17.2492 -33.4464 -721.848 -15.752 -368.181
lowerback 13.8216 -6.42306 -1.18248
upperback 3.33151 -8.6344 1.01798
thorax -3.82371 -4.2781 3.14953
lowerneck -1.89856 0.952362 -4.9657
upperneck 13.4164 1.91499 -3.39918
head 4.79565 0.475544 -0.193131
rclavicle -8.01102e-014 -8.74653e-015
rhumerus -54.6771 7.44545 -87.8998
rradius 57.7457
rwrist -1.07347
rhand -31.5034 31.2183
rfingers 7.12502
rthumb -4.76919 1.292
lclavicle -8.01102e-014 -8.74653e-015
lhumerus -32.5186 -23.9629 98.9682
lradius 77.7193
lwrist 13.2827
lhand -4.72102 -8.03685
lfingers 7.12502
lthumb 21.0614 20.8394
rfemur -8.19471 20.5994 14.2282
rtibia 29.6552
rfoot -16.6909 7.2281
rtoes -25.2115
lfemur -11.5037 -20.7838 -11.0707
ltibia 52.91
lfoot -26.7006 -31.9496
ltoes 6.2255
2498
root -21.7908 17.2392 -33.4858 -721.696 -14.4093 -368.279
lowerback 13.8406 -6.4207 -0.75302
upperback 3.26277 -8.56581 1.06012
thorax -3.96622 -4.24158 2.95998
lowerneck -2.04466 1.06378 -4.75751
upperneck 13.6552 2.07935 -3.41883
head 4.91502 0.5579 -0.228672
rclavicle -1.15593e-013 1.59028e-015
rhumerus -54.04 6.6376 -87.6085
rradius 56.7916
rwrist -0.55091
rhand -31.6117 31.1108
rfingers 7.12502
rthumb -4.87377 1.18685
lclavicle -1.15593e-013 1.59028e-015
lhumerus -30.9396 -21.8931 98.8047
lradius 74.0711
lwrist 12.0492
lhand -5.02073 -8.69125
lfingers 7.12502
lthumb 20.7735 20.2168
rfemur -7.89778 19.4583 14.8206
rtibia 29.6891
rfoot -17.9289 6.75241
rtoes -26.0185
lfemur -12.2069 -20.734 -10.4195
ltibia 53.4762
lfoot -27.368 -30.6215
ltoes 4.71165
2499
root -21.905 17.2326 -33.5255 -721.551 -13.103 -368.401
lowerback 13.8523 -6.40817 -0.266568
upperback 3.20694 -8.47605 1.08422
thorax -4.1021 -4.19599 2.71552
lowerneck -2.13164 1.1935 -4.55544
upperneck 13.8511 2.26043 -3.42346
head 5.00687 0.651239 -0.257149
rclavicle 6.65929e-015 2.14687e-014
rhumerus -53.3271 5.7895 -87.3317
rradius 55.7774
rwrist -0.0933319
rhand -31.6706 30.9912
rfingers 7.12502
rthumb -4.93068 1.06859
lclavicle 6.65929e-015 2.14687e-014
lhumerus -29.3657 -19.3363 98.6527
lradius 70.2369
lwrist 10.261
lhand -5.14675 -9.58432
lfingers 7.12502
lthumb 20.6524 19.3369
rfemur -7.61151 18.3817 15.4335
rtibia 29.6552
rfoot -19.0027 6.20989
rtoes -26.6892
lfemur -12.8887 -20.6064 -9.78337
ltibia 54.0261
lfoot -27.9884 -29.1526
ltoes 3.12614
2500
root -22.0154 17.23 -33.5651 -721.421 -11.8336 -368.527
lowerback 13.8842 -6.37169 0.286941
upperback 3.14515 -8.34533 1.0831
thorax -4.2684 -4.13083 2.40473
lowerneck -2.19949 1.31175 -4.37192
upperneck 14.4642 2.43814 -3.4264
head 4.70312 0.727961 -0.226194
rclavicle 5.27773e-014 3.97569e-015
rhumerus -52.6417 4.95621 -87.0861
rradius 54.7563
rwrist 0.306525
rhand -31.7985 30.7375
rfingers 7.12502
rthumb -5.05419 0.817746
lclavicle 5.27773e-014 3.97569e-015
lhumerus -27.8412 -16.3602 98.5511
lradius 66.2529
lwrist 7.96156
lhand -5.40586 -10.5855
lfingers 7.12502
lthumb 20.4034 18.3626
rfemur -7.32865 17.5139 16.0245
rtibia 29.5319
rfoot -19.8017 5.59408
rtoes -26.8018
lfemur -13.5504 -20.4245 -9.2044
ltibia 54.5679
lfoot -28.502 -27.4922
ltoes 1.47208
2501
root -22.1235 17.2314 -33.6029 -721.298 -10.6091 -368.655
lowerback 13.8854 -6.32135 0.883677
upperback 3.09993 -8.19148 1.05452
thorax -4.40871 -4.05638 2.03237
lowerneck -2.22117 1.42809 -4.19458
upperneck 14.6443 2.58982 -3.37329
head 4.76212 0.810622 -0.230914
rclavicle -7.73272e-014 3.65764e-014
rhumerus -51.9237 4.13095 -86.8583
rradius 53.6839
rwrist 0.681807
rhand -31.9141 30.4713
rfingers 7.12502
rthumb -5.16581 0.554225
lclavicle -7.73272e-014 3.65764e-014
lhumerus -26.4169 -12.9431 98.4604
lradius 62.2858
lwrist 5.34194
lhand -5.92186 -11.4321
lfingers 7.12502
lthumb 19.9075 17.5682
rfemur -7.03778 16.8198 16.6113
rtibia 29.3217
rfoot -20.3829 4.95881
rtoes -26.6056
lfemur -14.1891 -20.2113 -8.67431
ltibia 55.0997
lfoot -28.92 -25.6902
ltoes -0.191552
2502
root -22.2275 17.237 -33.6387 -721.196 -9.41847 -368.788
lowerback 13.8803 -6.2546 1.52575
upperback 3.07153 -8.01015 1.01424
thorax -4.53248 -3.9702 1.61548
lowerneck -2.28248 1.535 -4.0797
upperneck 14.8621 2.72953 -3.26447
head 4.83835 0.886091 -0.208142
rclavicle 1.48095e-014 -2.14687e-014
rhumerus -51.1972 3.39264 -86.6525
rradius 52.6232
rwrist 0.947238
rhand -32.0189 30.1453
rfingers 7.12502
rthumb -5.26703 0.230766
lclavicle 1.48095e-014 -2.14687e-014
lhumerus -25.0908 -9.12214 98.3492
lradius 58.4742
lwrist 2.5762
lhand -6.74168 -11.8987
lfingers 7.12502
lthumb 19.1192 17.1816
rfemur -6.71277 16.2384 17.2036
rtibia 29.0402
rfoot -20.8464 4.25809
rtoes -26.3056
lfemur -14.7868 -19.9681 -8.19722
ltibia 55.6038
lfoot -29.224 -23.874
ltoes -1.8127
2503
root -22.3296 17.2456 -33.6718 -721.098 -8.27662 -368.904
lowerback 13.8263 -6.16661 2.17421
upperback 3.05846 -7.80279 0.955205
thorax -4.61257 -3.87281 1.1629
lowerneck -2.27034 1.6561 -3.92569
upperneck 15.0022 2.88365 -3.2002
head 4.87932 0.971541 -0.205593
rclavicle 5.1684e-014 -1.51076e-014
rhumerus -50.4761 2.66511 -86.4144
rradius 51.5764
rwrist 1.17781
rhand -32.0566 29.8701
rfingers 7.12502
rthumb -5.30339 -0.0435667
lclavicle 5.1684e-014 -1.51076e-014
lhumerus -23.9315 -4.90615 98.2381
lradius 54.8419
lwrist -0.125486
lhand -8.09716 -11.9057
lfingers 7.12502
lthumb 17.8154 17.2983
rfemur -6.39567 15.6663 17.7699
rtibia 28.7075
rfoot -21.1628 3.56231
rtoes -25.8969
lfemur -15.3455 -19.7099 -7.79171
ltibia 56.0724
lfoot -29.3582 -22.08
ltoes -3.14487
